<svg xmlns="http://www.w3.org/2000/svg" version="1.1" xmlns:xlink="http://www.w3.org/1999/xlink" xmlns:svgjs="http://svgjs.dev/svgjs" width="2000" height="1247" viewBox="0 0 2000 1247"><g transform="matrix(1,0,0,1,-1.2121212121212466,0.504858299595071)"><svg viewBox="0 0 396 247" data-background-color="#dde92d" preserveAspectRatio="xMidYMid meet" height="1247" width="2000" xmlns="http://www.w3.org/2000/svg" xmlns:xlink="http://www.w3.org/1999/xlink"><g id="tight-bounds" transform="matrix(1,0,0,1,0.2400000000000091,-0.09999999999999432)"><svg viewBox="0 0 395.52 247.2" height="247.2" width="395.52"><g><svg></svg></g><g><svg viewBox="0 0 395.52 247.2" height="247.2" width="395.52"><mask id="1399772a-51dd-48a7-a1e0-3e05109603bd"><rect width="395.52" height="247.2" fill="white"></rect><g transform="matrix(1,0,0,1,0,93.7713994178631)" id="clone"><svg viewBox="0 0 395.52 59.6572011642738" height="59.6572011642738" width="395.52"><g><svg viewBox="0 0 395.52 59.6572011642738" height="59.6572011642738" width="395.52"><g><svg viewBox="0 0 395.52 59.6572011642738" height="59.6572011642738" width="395.52"><g><svg viewBox="0 0 395.52 59.6572011642738" height="59.6572011642738" width="395.52"><g id="SvgjsG1412"><svg viewBox="0 0 395.52 59.6572011642738" height="59.6572011642738" width="395.52" id="SvgjsSvg1411"><g><svg viewBox="0 0 395.52 59.6572011642738" height="59.6572011642738" width="395.52"><g transform="matrix(1,0,0,1,0,0)"><svg width="395.52" viewBox="-0.020000000000000018 -41.72 299.58 46.04" height="59.6572011642738" data-palette-color="#f40101"><path d="M40.23-8.59L40.23-8.59Q40.23-6.25 39.11-4.81 37.99-3.37 35.94-2.49L35.94-2.49Q34.23-1.76 31.64-1.34 29.05-0.93 26.27-0.76 23.49-0.59 20.8-0.54 18.12-0.49 16.31-0.49L16.31-0.49Q13.23-0.49 10.23-0.59 7.23-0.68 4.15-0.88L4.15-0.88Q4.3-5.86 3.86-10.74L3.86-10.74Q7.52-10.64 11.16-10.57 14.79-10.5 18.46-10.4L18.46-10.4Q19.87-10.35 21.31-10.3 22.75-10.25 24.22-10.25L24.22-10.25Q24.46-10.25 24.95-10.25 25.44-10.25 25.98-10.3 26.51-10.35 26.98-10.45 27.44-10.55 27.69-10.74L27.69-10.74Q27.88-10.94 27.93-11.3 27.98-11.67 27.98-11.96L27.98-11.96Q27.98-12.5 27.83-13.26 27.69-14.01 27.39-14.5L27.39-14.5Q27.34-14.55 27.08-14.6 26.81-14.65 26.46-14.67 26.12-14.7 25.83-14.72 25.54-14.75 25.49-14.75L25.49-14.75Q22.36-14.99 19.26-15.09 16.16-15.19 13.04-15.43L13.04-15.43Q11.62-15.58 10.13-15.72 8.64-15.87 7.37-16.26L7.37-16.26Q6.15-16.6 5.3-17.8 4.44-18.99 3.93-20.53 3.42-22.07 3.2-23.63 2.98-25.2 2.98-26.27L2.98-26.27Q2.98-28.03 3.32-29.61 3.66-31.2 4.42-32.57 5.18-33.94 6.35-34.99 7.52-36.04 9.23-36.72L9.23-36.72Q12.16-37.84 15.5-38.28 18.85-38.72 21.92-38.72L21.92-38.72Q25.54-38.72 29.05-38.28 32.57-37.84 36.08-37.16L36.08-37.16Q36.04-35.74 36.01-34.35 35.99-32.96 35.99-31.54L35.99-31.54Q35.99-30.13 36.13-28.69 36.28-27.25 36.43-25.83L36.43-25.83Q31.79-25.73 27.17-25.66 22.56-25.59 17.87-25.39L17.87-25.39Q17.29-25.39 16.28-25.34 15.28-25.29 14.36-25.22 13.43-25.15 12.74-25.1 12.06-25.05 12.06-25.05L12.06-25.05Q11.82-24.51 11.77-23.95 11.72-23.39 11.72-22.8L11.72-22.8Q11.72-22.51 11.74-22.07 11.77-21.63 11.96-21.39L11.96-21.39Q12.01-21.34 12.79-21.24 13.57-21.14 14.53-21.04 15.48-20.95 16.33-20.85 17.19-20.75 17.38-20.75L17.38-20.75Q18.99-20.61 21.17-20.41 23.34-20.21 25.61-19.97 27.88-19.73 29.98-19.36 32.08-18.99 33.64-18.51L33.64-18.51Q35.06-18.02 36.25-16.97 37.45-15.92 38.33-14.53 39.21-13.13 39.72-11.6 40.23-10.06 40.23-8.59ZM78.61-22.02L78.61-22.02Q78.61-17.92 78.32-13.87 78.02-9.81 77.73-5.76L77.73-5.76Q72.26-5.27 66.84-4.93 61.42-4.59 55.95-4.59L55.95-4.59Q55.47-4.59 54.15-4.61 52.83-4.64 51.36-4.71 49.9-4.79 48.58-4.91 47.26-5.03 46.82-5.27L46.82-5.27Q45.21-6.15 44.58-7.5 43.94-8.84 43.94-10.55L43.94-10.55Q43.94-11.13 43.99-12.11 44.04-13.09 44.19-14.16 44.33-15.23 44.58-16.16 44.82-17.09 45.16-17.53L45.16-17.53Q45.6-18.12 47.17-18.53 48.73-18.95 50.9-19.19 53.07-19.43 55.59-19.58 58.1-19.73 60.4-19.8 62.69-19.87 64.5-19.87 66.31-19.87 67.09-19.87L67.09-19.87Q67.23-20.95 67.23-21.97L67.23-21.97Q67.23-22.07 67.23-22.49 67.23-22.9 67.19-23L67.19-23Q67.04-23.29 66.26-23.49 65.48-23.68 64.33-23.78 63.18-23.88 61.84-23.95 60.5-24.02 59.23-24.02 57.96-24.02 56.98-24.02 56-24.02 55.56-24.02L55.56-24.02Q52.49-24.02 49.41-23.9 46.34-23.78 43.26-23.68L43.26-23.68Q43.45-25.54 43.58-27.44 43.7-29.35 43.6-31.2L43.6-31.2Q47.17-31.84 50.75-32.1 54.34-32.37 58.01-32.37L58.01-32.37Q59.32-32.37 60.89-32.35 62.45-32.32 64.01-32.25 65.57-32.18 67.11-32.03 68.65-31.88 69.97-31.64L69.97-31.64Q71.34-31.4 72.68-30.76 74.02-30.13 75.19-29.2 76.36-28.27 77.24-27.08 78.12-25.88 78.51-24.51L78.51-24.51Q78.56-24.37 78.59-24.02 78.61-23.68 78.61-23.27 78.61-22.85 78.61-22.51 78.61-22.17 78.61-22.02ZM67.72-10.55L67.72-10.55 67.72-16.8Q66.31-16.85 64.89-16.87 63.47-16.89 62.06-16.89L62.06-16.89Q61.77-16.89 60.42-16.87 59.08-16.85 57.54-16.75 56-16.65 54.73-16.5 53.46-16.36 53.27-16.06L53.27-16.06Q53.02-15.67 52.95-15.26 52.88-14.84 52.88-14.4L52.88-14.4Q52.88-14.06 52.93-13.48 52.98-12.89 53.1-12.26 53.22-11.62 53.37-11.08 53.51-10.55 53.76-10.3L53.76-10.3Q53.95-10.06 54.42-9.94 54.88-9.81 55.42-9.74 55.95-9.67 56.49-9.64 57.03-9.62 57.32-9.62L57.32-9.62Q58.49-9.62 59.84-9.72 61.18-9.81 62.57-9.94 63.96-10.06 65.28-10.23 66.6-10.4 67.72-10.55ZM112.35-14.5L112.35-14.5Q112.35-13.18 112.35-11.84 112.35-10.5 112.25-9.18L112.25-9.18 101.36-8.5Q101.56-11.04 101.68-13.53 101.8-16.02 101.8-18.6L101.8-18.6Q101.8-18.85 101.8-19.43 101.8-20.02 101.75-20.68 101.7-21.34 101.66-21.92 101.61-22.51 101.56-22.75L101.56-22.75Q101.31-23.44 101.04-23.93 100.78-24.41 100.41-24.71 100.04-25 99.51-25.12 98.97-25.24 98.19-25.24L98.19-25.24Q97.6-25.24 96.7-25.15 95.8-25.05 94.87-24.85 93.94-24.66 93.11-24.37 92.28-24.07 91.94-23.68L91.94-23.68 91.84-9.28Q91.74-9.47 91.28-9.47 90.82-9.47 90.62-9.47L90.62-9.47Q89.16-9.47 87.59-9.35 86.03-9.23 84.57-9.03L84.57-9.03Q83.93-14.79 83.44-20.51 82.95-26.22 82.32-31.98L82.32-31.98Q83.3-32.03 84.27-32.06 85.25-32.08 86.23-32.08L86.23-32.08Q87.5-32.08 88.79-32.01 90.08-31.93 91.35-31.88L91.35-31.88 91.69-28.13Q93.06-30.37 95.41-31.88 97.75-33.4 100.43-33.4L100.43-33.4Q101.8-33.4 103.27-33.25 104.73-33.11 106.07-32.67 107.42-32.23 108.61-31.45 109.81-30.66 110.64-29.44L110.64-29.44Q111.03-28.86 111.3-27.71 111.57-26.56 111.76-25.12 111.96-23.68 112.08-22.07 112.2-20.46 112.25-18.99 112.3-17.53 112.32-16.33 112.35-15.14 112.35-14.5ZM150.38-19.04L150.38-19.04Q150.38-17.24 150.16-15.41 149.94-13.57 149.7-11.77L149.7-11.77Q149.31-8.59 148.82-5.49 148.33-2.39 147.84 0.78L147.84 0.78Q145.45 0.83 143.16 0.98 140.86 1.12 138.52 1.32L138.52 1.32Q138.52-2.25 138.52-5.74 138.52-9.23 138.37-12.74L138.37-12.74Q138.37-13.43 138.35-14.5 138.32-15.58 138.13-16.26L138.13-16.26Q137.83-17.38 137.39-17.8 136.96-18.21 135.69-18.21L135.69-18.21Q134.81-18.21 133.64-18.02 132.46-17.82 131.24-17.53 130.02-17.24 128.92-16.87 127.82-16.5 127.09-16.11L127.09-16.11Q126.7-12.16 126.14-8.25 125.58-4.35 125.43-0.34L125.43-0.34 118.55-0.68Q118.01-9.47 117.52-18.19 117.03-26.9 116.59-35.69L116.59-35.69 127.34-36.38Q127.24-33.15 127.14-29.96 127.04-26.76 126.95-23.54L126.95-23.54Q127.87-24.32 129.05-24.73 130.22-25.15 131.46-25.29 132.71-25.44 133.98-25.44 135.25-25.44 136.42-25.44L136.42-25.44Q138.18-25.44 140.4-25.32 142.62-25.2 144.65-24.63 146.67-24.07 148.23-22.85 149.8-21.63 150.33-19.43L150.33-19.43Q150.38-19.34 150.38-19.24 150.38-19.14 150.38-19.04ZM163.17-32.67L163.17-32.67Q163.17-31.69 162.76-30.83 162.34-29.98 161.64-29.35 160.93-28.71 160.05-28.34 159.17-27.98 158.29-27.98L158.29-27.98Q157.31-27.98 156.46-28.42 155.61-28.86 154.97-29.54 154.34-30.22 153.99-31.13 153.65-32.03 153.65-32.96L153.65-32.96Q153.65-33.89 154.02-34.69 154.38-35.5 154.99-36.08 155.61-36.67 156.41-37.01 157.22-37.35 158.14-37.35L158.14-37.35Q159.07-37.35 159.98-36.99 160.88-36.62 161.59-35.96 162.29-35.3 162.73-34.45 163.17-33.59 163.17-32.67ZM165.18-24.37L165.18-24.37Q164.93-21.78 164.78-19.24 164.64-16.7 164.49-14.16L164.49-14.16Q164.3-11.18 163.83-8.25 163.37-5.32 162.78-2.39L162.78-2.39 155.31-1.61Q155.31-3.17 155.34-4.69 155.36-6.2 155.36-7.76L155.36-7.76Q155.36-11.77 155.21-15.77 155.07-19.78 154.92-23.78L154.92-23.78Q157.51-23.88 160.02-24.07 162.54-24.27 165.18-24.37ZM170.2-36.52L181.09-37.55Q180.7-32.81 180.33-28.13 179.97-23.44 179.72-18.7L179.72-18.7Q179.48-14.4 179.21-10.18 178.94-5.96 178.7-1.66L178.7-1.66 171.23-1.27Q171.23-5.71 171.25-10.08 171.28-14.45 171.18-18.9L171.18-18.9Q171.08-23.34 170.79-27.71 170.5-32.08 170.2-36.52L170.2-36.52ZM241.93-24.56L241.93-24.56Q241.93-20.56 239.48-18.26 237.04-15.97 233.04-15.77L233.04-15.77Q237.87-7.71 241.49 0.73L241.49 0.73 227.23 1.07Q226.84-2.88 226.06-6.2 225.28-9.52 223.86-13.18L223.86-13.18Q222.25-13.09 220.66-12.94 219.07-12.79 217.51-12.7L217.51-12.7 217.76-1.61Q214.97-1.46 212.19-1.46L212.19-1.46Q210.77-1.46 209.43-1.51 208.09-1.56 206.72-1.71L206.72-1.71Q207.06-6.2 207.36-10.67 207.65-15.14 207.7-19.58L207.7-19.58Q207.84-27.49 208.14-35.4L208.14-35.4Q212.73-35.64 217.29-35.94 221.86-36.23 226.45-36.23L226.45-36.23Q227.62-36.23 228.99-36.18 230.35-36.13 231.75-35.91 233.14-35.69 234.43-35.3 235.72-34.91 236.75-34.28L236.75-34.28Q239.24-32.71 240.58-30.1 241.93-27.49 241.93-24.56ZM230.6-25.34L230.6-25.34Q230.6-25.73 230.57-26.42 230.55-27.1 230.45-27.81 230.35-28.52 230.16-29.13 229.96-29.74 229.62-30.03L229.62-30.03Q229.38-30.22 228.79-30.32 228.21-30.42 227.55-30.49 226.89-30.57 226.28-30.59 225.67-30.62 225.42-30.62L225.42-30.62Q223.47-30.62 221.59-30.42 219.71-30.22 217.85-29.93L217.85-29.93 219.17-20.46Q220.25-20.21 221.42-20.12 222.59-20.02 223.71-20.02L223.71-20.02Q224.2-20.02 225.15-20.07 226.11-20.12 227.11-20.26 228.11-20.41 228.96-20.68 229.82-20.95 230.16-21.39L230.16-21.39Q230.3-21.58 230.4-22.14 230.5-22.71 230.52-23.32 230.55-23.93 230.57-24.51 230.6-25.1 230.6-25.34ZM281.03-22.02L281.03-22.02Q281.03-17.92 280.74-13.87 280.45-9.81 280.16-5.76L280.16-5.76Q274.69-5.27 269.27-4.93 263.85-4.59 258.38-4.59L258.38-4.59Q257.89-4.59 256.57-4.61 255.25-4.64 253.79-4.71 252.32-4.79 251.01-4.91 249.69-5.03 249.25-5.27L249.25-5.27Q247.64-6.15 247-7.5 246.37-8.84 246.37-10.55L246.37-10.55Q246.37-11.13 246.42-12.11 246.46-13.09 246.61-14.16 246.76-15.23 247-16.16 247.25-17.09 247.59-17.53L247.59-17.53Q248.03-18.12 249.59-18.53 251.15-18.95 253.32-19.19 255.5-19.43 258.01-19.58 260.53-19.73 262.82-19.8 265.12-19.87 266.92-19.87 268.73-19.87 269.51-19.87L269.51-19.87Q269.66-20.95 269.66-21.97L269.66-21.97Q269.66-22.07 269.66-22.49 269.66-22.9 269.61-23L269.61-23Q269.46-23.29 268.68-23.49 267.9-23.68 266.75-23.78 265.61-23.88 264.26-23.95 262.92-24.02 261.65-24.02 260.38-24.02 259.4-24.02 258.43-24.02 257.99-24.02L257.99-24.02Q254.91-24.02 251.84-23.9 248.76-23.78 245.68-23.68L245.68-23.68Q245.88-25.54 246-27.44 246.12-29.35 246.02-31.2L246.02-31.2Q249.59-31.84 253.18-32.1 256.77-32.37 260.43-32.37L260.43-32.37Q261.75-32.37 263.31-32.35 264.87-32.32 266.44-32.25 268-32.18 269.54-32.03 271.07-31.88 272.39-31.64L272.39-31.64Q273.76-31.4 275.1-30.76 276.44-30.13 277.62-29.2 278.79-28.27 279.67-27.08 280.55-25.88 280.94-24.51L280.94-24.51Q280.99-24.37 281.01-24.02 281.03-23.68 281.03-23.27 281.03-22.85 281.03-22.51 281.03-22.17 281.03-22.02ZM270.15-10.55L270.15-10.55 270.15-16.8Q268.73-16.85 267.31-16.87 265.9-16.89 264.48-16.89L264.48-16.89Q264.19-16.89 262.85-16.87 261.5-16.85 259.97-16.75 258.43-16.65 257.16-16.5 255.89-16.36 255.69-16.06L255.69-16.06Q255.45-15.67 255.38-15.26 255.3-14.84 255.3-14.4L255.3-14.4Q255.3-14.06 255.35-13.48 255.4-12.89 255.52-12.26 255.64-11.62 255.79-11.08 255.94-10.55 256.18-10.3L256.18-10.3Q256.38-10.06 256.84-9.94 257.3-9.81 257.84-9.74 258.38-9.67 258.92-9.64 259.45-9.62 259.75-9.62L259.75-9.62Q260.92-9.62 262.26-9.72 263.6-9.81 264.99-9.94 266.39-10.06 267.7-10.23 269.02-10.4 270.15-10.55ZM294.56-32.67L294.56-32.67Q294.56-31.69 294.14-30.83 293.73-29.98 293.02-29.35 292.31-28.71 291.43-28.34 290.55-27.98 289.67-27.98L289.67-27.98Q288.7-27.98 287.84-28.42 286.99-28.86 286.35-29.54 285.72-30.22 285.38-31.13 285.04-32.03 285.04-32.96L285.04-32.96Q285.04-33.89 285.4-34.69 285.77-35.5 286.38-36.08 286.99-36.67 287.79-37.01 288.6-37.35 289.53-37.35L289.53-37.35Q290.46-37.35 291.36-36.99 292.26-36.62 292.97-35.96 293.68-35.3 294.12-34.45 294.56-33.59 294.56-32.67ZM296.56-24.37L296.56-24.37Q296.32-21.78 296.17-19.24 296.02-16.7 295.88-14.16L295.88-14.16Q295.68-11.18 295.22-8.25 294.75-5.32 294.17-2.39L294.17-2.39 286.7-1.61Q286.7-3.17 286.72-4.69 286.75-6.2 286.75-7.76L286.75-7.76Q286.75-11.77 286.6-15.77 286.45-19.78 286.31-23.78L286.31-23.78Q288.89-23.88 291.41-24.07 293.92-24.27 296.56-24.37Z" opacity="1" transform="matrix(1,0,0,1,0,0)" fill="black" class="wordmark-text-0" id="SvgjsPath1410" stroke-width="5" stroke="black" stroke-linejoin="round"></path></svg></g></svg></g></svg></g></svg></g></svg></g></svg></g></svg></g></mask><g mask="url(#1399772a-51dd-48a7-a1e0-3e05109603bd)"><g><path d="M190.168 175.577v0c0 7.922-1.896 14.321-5.688 19.196-3.792 4.875-9.158 8.802-16.098 11.781v0c-5.789 2.471-13.068 4.418-21.837 5.84-8.769 1.388-17.859 2.37-27.27 2.946-9.412 0.576-18.671 0.948-27.779 1.117-9.073 0.169-16.674 0.254-22.801 0.254v0c-10.427 0-20.72-0.169-30.877-0.508-10.157-0.305-20.449-0.796-30.876-1.473v0c0.508-16.86 0.017-33.551-1.472-50.072v0c12.391 0.339 24.748 0.626 37.071 0.864 12.29 0.237 24.647 0.525 37.072 0.863v0c4.774 0.169 9.598 0.339 14.473 0.508 4.875 0.169 9.801 0.254 14.778 0.254v0c0.813 0 2.048 0 3.707 0 1.659 0 3.402-0.085 5.231-0.254 1.794-0.169 3.487-0.423 5.078-0.762 1.557-0.339 2.759-0.829 3.606-1.473v0c0.643-0.677 1.05-1.625 1.219-2.844 0.169-1.253 0.254-2.37 0.254-3.351v0c0-1.828-0.254-4.029-0.762-6.602-0.474-2.539-1.219-4.638-2.235-6.297v0c-0.169-0.169-0.694-0.339-1.574-0.508-0.914-0.169-1.964-0.288-3.148-0.356-1.151-0.102-2.218-0.186-3.2-0.254-0.982-0.102-1.557-0.152-1.726-0.152v0c-10.597-0.813-21.143-1.388-31.638-1.726-10.495-0.339-21.024-0.914-31.588-1.727v0c-4.807-0.508-9.733-0.999-14.777-1.473-5.044-0.508-9.717-1.422-14.017-2.742v0c-4.13-1.151-7.634-3.758-10.512-7.821-2.912-4.029-5.231-8.65-6.957-13.864-1.727-5.214-2.962-10.461-3.707-15.742-0.745-5.315-1.117-9.784-1.117-13.407v0c0-5.959 0.576-11.612 1.726-16.962 1.151-5.383 3.013-10.394 5.586-15.031 2.573-4.638 5.84-8.735 9.802-12.29 3.961-3.555 8.836-6.483 14.625-8.785v0c9.92-3.792 20.533-6.433 31.841-7.923 11.342-1.49 22.209-2.234 32.603-2.234v0c12.256 0 24.325 0.745 36.208 2.234 11.917 1.49 23.817 3.386 35.701 5.688v0c-0.135 4.807-0.254 9.564-0.356 14.27-0.068 4.706-0.102 9.463-0.101 14.27v0c0 4.774 0.237 9.598 0.711 14.473 0.508 4.875 1.016 9.717 1.523 14.524v0c-15.709 0.339-31.384 0.626-47.025 0.864-15.607 0.237-31.35 0.694-47.228 1.371v0c-1.964 0-4.655 0.085-8.075 0.254-3.386 0.169-6.636 0.372-9.75 0.609-3.149 0.237-5.891 0.44-8.227 0.61-2.302 0.169-3.453 0.254-3.453 0.253v0c-0.813 1.828-1.303 3.69-1.473 5.587-0.169 1.896-0.254 3.843-0.254 5.84v0c0 0.982 0.034 2.218 0.102 3.707 0.102 1.49 0.474 2.641 1.117 3.453v0c0.169 0.169 1.574 0.423 4.215 0.762 2.641 0.339 5.586 0.677 8.836 1.016 3.216 0.305 6.263 0.626 9.141 0.964 2.912 0.339 4.689 0.508 5.332 0.508v0c5.451 0.474 11.866 1.05 19.247 1.727 7.347 0.677 14.863 1.422 22.548 2.234 7.685 0.813 15.083 1.845 22.192 3.098 7.11 1.253 13.305 2.692 18.587 4.317v0c4.807 1.659 9.226 4.266 13.254 7.82 4.063 3.555 7.584 7.685 10.563 12.391 2.979 4.74 5.332 9.7 7.059 14.88 1.727 5.214 2.59 10.309 2.59 15.286zM394.519 94.476v0c0 13.542-4.13 24.207-12.391 31.993-8.261 7.753-19.179 11.968-32.755 12.645v0c16.386 27.287 30.69 55.218 42.912 83.793v-0.001l-72.417 1.727c-1.32-13.373-3.301-25.679-5.941-36.919-2.641-11.24-6.365-23.056-11.173-35.447v0c-5.451 0.305-10.868 0.711-16.25 1.219-5.349 0.508-10.681 0.914-15.997 1.219v0l1.269 56.318c-9.412 0.508-18.841 0.762-28.286 0.762v0c-4.774 0-9.446-0.085-14.016-0.254-4.537-0.169-9.124-0.508-13.762-1.016v0c1.185-15.201 2.268-30.368 3.25-45.501 0.982-15.133 1.557-30.216 1.727-45.248v0c0.508-26.78 1.253-53.559 2.234-80.339v0c15.54-0.813 31.029-1.727 46.467-2.742 15.472-0.982 30.978-1.473 46.517-1.473v0c3.961 0 8.261 0.085 12.899 0.254 4.638 0.169 9.31 0.626 14.016 1.371 4.706 0.745 9.243 1.777 13.61 3.098 4.401 1.32 8.328 3.047 11.782 5.18v0c8.43 5.315 14.93 12.391 19.5 21.227 4.537 8.836 6.805 18.214 6.805 28.134zM336.982 90.515v0c0-1.32-0.034-3.149-0.102-5.485-0.102-2.302-0.322-4.655-0.66-7.059-0.305-2.404-0.796-4.638-1.472-6.703-0.643-2.065-1.557-3.589-2.743-4.571v0c-0.813-0.643-2.218-1.134-4.215-1.472-1.964-0.339-4.063-0.626-6.297-0.864-2.234-0.271-4.384-0.44-6.449-0.507-2.065-0.102-3.521-0.152-4.368-0.153v0c-6.602 0-13.085 0.339-19.45 1.016-6.365 0.677-12.679 1.507-18.942 2.488v0l6.653 48.092c3.656 0.846 7.465 1.422 11.426 1.727 3.961 0.339 7.854 0.508 11.68 0.507v0c1.625 0 4.063-0.085 7.313-0.254 3.216-0.169 6.517-0.491 9.903-0.964 3.386-0.508 6.517-1.219 9.395-2.133 2.912-0.914 4.943-2.116 6.094-3.606v0c0.508-0.643 0.931-1.913 1.269-3.809 0.305-1.93 0.508-3.927 0.61-5.992 0.068-2.065 0.152-4.08 0.254-6.043 0.068-1.997 0.102-3.402 0.101-4.215z" fill="#ffffff" fill-rule="nonzero" stroke="none" stroke-width="1" stroke-linecap="butt" stroke-linejoin="miter" stroke-miterlimit="10" stroke-dasharray="" stroke-dashoffset="0" font-family="none" font-weight="none" font-size="none" text-anchor="none" style="mix-blend-mode: normal" data-fill-palette-color="tertiary"></path></g></g><g transform="matrix(1,0,0,1,0,93.7713994178631)"><svg viewBox="0 0 395.52 59.6572011642738" height="59.6572011642738" width="395.52"><g><svg viewBox="0 0 395.52 59.6572011642738" height="59.6572011642738" width="395.52"><g><svg viewBox="0 0 395.52 59.6572011642738" height="59.6572011642738" width="395.52"><g><svg viewBox="0 0 395.52 59.6572011642738" height="59.6572011642738" width="395.52"><g id="textblocktransform"><svg viewBox="0 0 395.52 59.6572011642738" height="59.6572011642738" width="395.52" id="textblock"><g><svg viewBox="0 0 395.52 59.6572011642738" height="59.6572011642738" width="395.52"><g transform="matrix(1,0,0,1,0,0)"><svg width="395.52" viewBox="-0.020000000000000018 -41.72 299.58 46.04" height="59.6572011642738" data-palette-color="#f40101"><path d="M40.23-8.59L40.23-8.59Q40.23-6.25 39.11-4.81 37.99-3.37 35.94-2.49L35.94-2.49Q34.23-1.76 31.64-1.34 29.05-0.93 26.27-0.76 23.49-0.59 20.8-0.54 18.12-0.49 16.31-0.49L16.31-0.49Q13.23-0.49 10.23-0.59 7.23-0.68 4.15-0.88L4.15-0.88Q4.3-5.86 3.86-10.74L3.86-10.74Q7.52-10.64 11.16-10.57 14.79-10.5 18.46-10.4L18.46-10.4Q19.87-10.35 21.31-10.3 22.75-10.25 24.22-10.25L24.22-10.25Q24.46-10.25 24.95-10.25 25.44-10.25 25.98-10.3 26.51-10.35 26.98-10.45 27.44-10.55 27.69-10.74L27.69-10.74Q27.88-10.94 27.93-11.3 27.98-11.67 27.98-11.96L27.98-11.96Q27.98-12.5 27.83-13.26 27.69-14.01 27.39-14.5L27.39-14.5Q27.34-14.55 27.08-14.6 26.81-14.65 26.46-14.67 26.12-14.7 25.83-14.72 25.54-14.75 25.49-14.75L25.49-14.75Q22.36-14.99 19.26-15.09 16.16-15.19 13.04-15.43L13.04-15.43Q11.62-15.58 10.13-15.72 8.64-15.87 7.37-16.26L7.37-16.26Q6.15-16.6 5.3-17.8 4.44-18.99 3.93-20.53 3.42-22.07 3.2-23.63 2.98-25.2 2.98-26.27L2.98-26.27Q2.98-28.03 3.32-29.61 3.66-31.2 4.42-32.57 5.18-33.94 6.35-34.99 7.52-36.04 9.23-36.72L9.23-36.72Q12.16-37.84 15.5-38.28 18.85-38.72 21.92-38.72L21.92-38.72Q25.54-38.72 29.05-38.28 32.57-37.84 36.08-37.16L36.08-37.16Q36.04-35.74 36.01-34.35 35.99-32.96 35.99-31.54L35.99-31.54Q35.99-30.13 36.13-28.69 36.28-27.25 36.43-25.83L36.43-25.83Q31.79-25.73 27.17-25.66 22.56-25.59 17.87-25.39L17.87-25.39Q17.29-25.39 16.28-25.34 15.28-25.29 14.36-25.22 13.43-25.15 12.74-25.1 12.06-25.05 12.06-25.05L12.06-25.05Q11.82-24.51 11.77-23.95 11.72-23.39 11.72-22.8L11.72-22.8Q11.72-22.51 11.74-22.07 11.77-21.63 11.96-21.39L11.96-21.39Q12.01-21.34 12.79-21.24 13.57-21.14 14.53-21.04 15.48-20.95 16.33-20.85 17.19-20.75 17.38-20.75L17.38-20.75Q18.99-20.61 21.17-20.41 23.34-20.21 25.61-19.97 27.88-19.73 29.98-19.36 32.08-18.99 33.64-18.51L33.64-18.51Q35.06-18.02 36.25-16.97 37.45-15.92 38.33-14.53 39.21-13.13 39.72-11.6 40.23-10.06 40.23-8.59ZM78.61-22.02L78.61-22.02Q78.61-17.92 78.32-13.87 78.02-9.81 77.73-5.76L77.73-5.76Q72.26-5.27 66.84-4.93 61.42-4.59 55.95-4.59L55.95-4.59Q55.47-4.59 54.15-4.61 52.83-4.64 51.36-4.71 49.9-4.79 48.58-4.91 47.26-5.03 46.82-5.27L46.82-5.27Q45.21-6.15 44.58-7.5 43.94-8.84 43.94-10.55L43.94-10.55Q43.94-11.13 43.99-12.11 44.04-13.09 44.19-14.16 44.33-15.23 44.58-16.16 44.82-17.09 45.16-17.53L45.16-17.53Q45.6-18.12 47.17-18.53 48.73-18.95 50.9-19.19 53.07-19.43 55.59-19.58 58.1-19.73 60.4-19.8 62.69-19.87 64.5-19.87 66.31-19.87 67.09-19.87L67.09-19.87Q67.23-20.95 67.23-21.97L67.23-21.97Q67.23-22.07 67.23-22.49 67.23-22.9 67.19-23L67.19-23Q67.04-23.29 66.26-23.49 65.48-23.68 64.33-23.78 63.18-23.88 61.84-23.95 60.5-24.02 59.23-24.02 57.96-24.02 56.98-24.02 56-24.02 55.56-24.02L55.56-24.02Q52.49-24.02 49.41-23.9 46.34-23.78 43.26-23.68L43.26-23.68Q43.45-25.54 43.58-27.44 43.7-29.35 43.6-31.2L43.6-31.2Q47.17-31.84 50.75-32.1 54.34-32.37 58.01-32.37L58.01-32.37Q59.32-32.37 60.89-32.35 62.45-32.32 64.01-32.25 65.57-32.18 67.11-32.03 68.65-31.88 69.97-31.64L69.97-31.64Q71.34-31.4 72.68-30.76 74.02-30.13 75.19-29.2 76.36-28.27 77.24-27.08 78.12-25.88 78.51-24.51L78.51-24.51Q78.56-24.37 78.59-24.02 78.61-23.68 78.61-23.27 78.61-22.85 78.61-22.51 78.61-22.17 78.61-22.02ZM67.72-10.55L67.72-10.55 67.72-16.8Q66.31-16.85 64.89-16.87 63.47-16.89 62.06-16.89L62.06-16.89Q61.77-16.89 60.42-16.87 59.08-16.85 57.54-16.75 56-16.65 54.73-16.5 53.46-16.36 53.27-16.06L53.27-16.06Q53.02-15.67 52.95-15.26 52.88-14.84 52.88-14.4L52.88-14.4Q52.88-14.06 52.93-13.48 52.98-12.89 53.1-12.26 53.22-11.62 53.37-11.08 53.51-10.55 53.76-10.3L53.76-10.3Q53.95-10.06 54.42-9.94 54.88-9.81 55.42-9.74 55.95-9.67 56.49-9.64 57.03-9.62 57.32-9.62L57.32-9.62Q58.49-9.62 59.84-9.72 61.18-9.81 62.57-9.94 63.96-10.06 65.28-10.23 66.6-10.4 67.72-10.55ZM112.35-14.5L112.35-14.5Q112.35-13.18 112.35-11.84 112.35-10.5 112.25-9.18L112.25-9.18 101.36-8.5Q101.56-11.04 101.68-13.53 101.8-16.02 101.8-18.6L101.8-18.6Q101.8-18.85 101.8-19.43 101.8-20.02 101.75-20.68 101.7-21.34 101.66-21.92 101.61-22.51 101.56-22.75L101.56-22.75Q101.31-23.44 101.04-23.93 100.78-24.41 100.41-24.71 100.04-25 99.51-25.12 98.97-25.24 98.19-25.24L98.19-25.24Q97.6-25.24 96.7-25.15 95.8-25.05 94.87-24.85 93.94-24.66 93.11-24.37 92.28-24.07 91.94-23.68L91.94-23.68 91.84-9.28Q91.74-9.47 91.28-9.47 90.82-9.47 90.62-9.47L90.62-9.47Q89.16-9.47 87.59-9.35 86.03-9.23 84.57-9.03L84.57-9.03Q83.93-14.79 83.44-20.51 82.95-26.22 82.32-31.98L82.32-31.98Q83.3-32.03 84.27-32.06 85.25-32.08 86.23-32.08L86.23-32.08Q87.5-32.08 88.79-32.01 90.08-31.93 91.35-31.88L91.35-31.88 91.69-28.13Q93.06-30.37 95.41-31.88 97.75-33.4 100.43-33.4L100.43-33.4Q101.8-33.4 103.27-33.25 104.73-33.11 106.07-32.67 107.42-32.23 108.61-31.45 109.81-30.66 110.64-29.44L110.64-29.44Q111.03-28.86 111.3-27.71 111.57-26.56 111.76-25.12 111.96-23.68 112.08-22.07 112.2-20.46 112.25-18.99 112.3-17.53 112.32-16.33 112.35-15.14 112.35-14.5ZM150.38-19.04L150.38-19.04Q150.38-17.24 150.16-15.41 149.94-13.57 149.7-11.77L149.7-11.77Q149.31-8.59 148.82-5.49 148.33-2.39 147.84 0.78L147.84 0.78Q145.45 0.83 143.16 0.98 140.86 1.12 138.52 1.32L138.52 1.32Q138.52-2.25 138.52-5.74 138.52-9.23 138.37-12.74L138.37-12.74Q138.37-13.43 138.35-14.5 138.32-15.58 138.13-16.26L138.13-16.26Q137.83-17.38 137.39-17.8 136.96-18.21 135.69-18.21L135.69-18.21Q134.81-18.21 133.64-18.02 132.46-17.82 131.24-17.53 130.02-17.24 128.92-16.87 127.82-16.5 127.09-16.11L127.09-16.11Q126.7-12.16 126.14-8.25 125.58-4.35 125.43-0.34L125.43-0.34 118.55-0.68Q118.01-9.47 117.52-18.19 117.03-26.9 116.59-35.69L116.59-35.69 127.34-36.38Q127.24-33.15 127.14-29.96 127.04-26.76 126.95-23.54L126.95-23.54Q127.87-24.32 129.05-24.73 130.22-25.15 131.46-25.29 132.71-25.44 133.98-25.44 135.25-25.44 136.42-25.44L136.42-25.44Q138.18-25.44 140.4-25.32 142.62-25.2 144.65-24.63 146.67-24.07 148.23-22.85 149.8-21.63 150.33-19.43L150.33-19.43Q150.38-19.34 150.38-19.24 150.38-19.14 150.38-19.04ZM163.17-32.67L163.17-32.67Q163.17-31.69 162.76-30.83 162.34-29.98 161.64-29.35 160.93-28.71 160.05-28.34 159.17-27.98 158.29-27.98L158.29-27.98Q157.31-27.98 156.46-28.42 155.61-28.86 154.97-29.54 154.34-30.22 153.99-31.13 153.65-32.03 153.65-32.96L153.65-32.96Q153.65-33.89 154.02-34.69 154.38-35.5 154.99-36.08 155.61-36.67 156.41-37.01 157.22-37.35 158.14-37.35L158.14-37.35Q159.07-37.35 159.98-36.99 160.88-36.62 161.59-35.96 162.29-35.3 162.73-34.45 163.17-33.59 163.17-32.67ZM165.18-24.37L165.18-24.37Q164.93-21.78 164.78-19.24 164.64-16.7 164.49-14.16L164.49-14.16Q164.3-11.18 163.83-8.25 163.37-5.32 162.78-2.39L162.78-2.39 155.31-1.61Q155.31-3.17 155.34-4.69 155.36-6.2 155.36-7.76L155.36-7.76Q155.36-11.77 155.21-15.77 155.07-19.78 154.92-23.78L154.92-23.78Q157.51-23.88 160.02-24.07 162.54-24.27 165.18-24.37ZM170.2-36.52L181.09-37.55Q180.7-32.81 180.33-28.13 179.97-23.44 179.72-18.7L179.72-18.7Q179.48-14.4 179.21-10.18 178.94-5.96 178.7-1.66L178.7-1.66 171.23-1.27Q171.23-5.71 171.25-10.08 171.28-14.45 171.18-18.9L171.18-18.9Q171.08-23.34 170.79-27.71 170.5-32.08 170.2-36.52L170.2-36.52ZM241.93-24.56L241.93-24.56Q241.93-20.56 239.48-18.26 237.04-15.97 233.04-15.77L233.04-15.77Q237.87-7.71 241.49 0.73L241.49 0.73 227.23 1.07Q226.84-2.88 226.06-6.2 225.28-9.52 223.86-13.18L223.86-13.18Q222.25-13.09 220.66-12.94 219.07-12.79 217.51-12.7L217.51-12.7 217.76-1.61Q214.97-1.46 212.19-1.46L212.19-1.46Q210.77-1.46 209.43-1.51 208.09-1.56 206.72-1.71L206.72-1.71Q207.06-6.2 207.36-10.67 207.65-15.14 207.7-19.58L207.7-19.58Q207.84-27.49 208.14-35.4L208.14-35.4Q212.73-35.64 217.29-35.94 221.86-36.23 226.45-36.23L226.45-36.23Q227.62-36.23 228.99-36.18 230.35-36.13 231.75-35.91 233.14-35.69 234.43-35.3 235.72-34.91 236.75-34.28L236.75-34.28Q239.24-32.71 240.58-30.1 241.93-27.49 241.93-24.56ZM230.6-25.34L230.6-25.34Q230.6-25.73 230.57-26.42 230.55-27.1 230.45-27.81 230.35-28.52 230.16-29.13 229.96-29.74 229.62-30.03L229.62-30.03Q229.38-30.22 228.79-30.32 228.21-30.42 227.55-30.49 226.89-30.57 226.28-30.59 225.67-30.62 225.42-30.62L225.42-30.62Q223.47-30.62 221.59-30.42 219.71-30.22 217.85-29.93L217.85-29.93 219.17-20.46Q220.25-20.21 221.42-20.12 222.59-20.02 223.71-20.02L223.71-20.02Q224.2-20.02 225.15-20.07 226.11-20.12 227.11-20.26 228.11-20.41 228.96-20.68 229.82-20.95 230.16-21.39L230.16-21.39Q230.3-21.58 230.4-22.14 230.5-22.71 230.52-23.32 230.55-23.93 230.57-24.51 230.6-25.1 230.6-25.34ZM281.03-22.02L281.03-22.02Q281.03-17.92 280.74-13.87 280.45-9.81 280.16-5.76L280.16-5.76Q274.69-5.27 269.27-4.93 263.85-4.59 258.38-4.59L258.38-4.59Q257.89-4.59 256.57-4.61 255.25-4.64 253.79-4.71 252.32-4.79 251.01-4.91 249.69-5.03 249.25-5.27L249.25-5.27Q247.64-6.15 247-7.5 246.37-8.84 246.37-10.55L246.37-10.55Q246.37-11.13 246.42-12.11 246.46-13.09 246.61-14.16 246.76-15.23 247-16.16 247.25-17.09 247.59-17.53L247.59-17.53Q248.03-18.12 249.59-18.53 251.15-18.95 253.32-19.19 255.5-19.43 258.01-19.58 260.53-19.73 262.82-19.8 265.12-19.87 266.92-19.87 268.73-19.87 269.51-19.87L269.51-19.87Q269.66-20.95 269.66-21.97L269.66-21.97Q269.66-22.07 269.66-22.49 269.66-22.9 269.61-23L269.61-23Q269.46-23.29 268.68-23.49 267.9-23.68 266.75-23.78 265.61-23.88 264.26-23.95 262.92-24.02 261.65-24.02 260.38-24.02 259.4-24.02 258.43-24.02 257.99-24.02L257.99-24.02Q254.91-24.02 251.84-23.9 248.76-23.78 245.68-23.68L245.68-23.68Q245.88-25.54 246-27.44 246.12-29.35 246.02-31.2L246.02-31.2Q249.59-31.84 253.18-32.1 256.77-32.37 260.43-32.37L260.43-32.37Q261.75-32.37 263.31-32.35 264.87-32.32 266.44-32.25 268-32.18 269.54-32.03 271.07-31.88 272.39-31.64L272.39-31.64Q273.76-31.4 275.1-30.76 276.44-30.13 277.62-29.2 278.79-28.27 279.67-27.08 280.55-25.88 280.94-24.51L280.94-24.51Q280.99-24.37 281.01-24.02 281.03-23.68 281.03-23.27 281.03-22.85 281.03-22.51 281.03-22.17 281.03-22.02ZM270.15-10.55L270.15-10.55 270.15-16.8Q268.73-16.85 267.31-16.87 265.9-16.89 264.48-16.89L264.48-16.89Q264.19-16.89 262.85-16.87 261.5-16.85 259.97-16.75 258.43-16.65 257.16-16.5 255.89-16.36 255.69-16.06L255.69-16.06Q255.45-15.67 255.38-15.26 255.3-14.84 255.3-14.4L255.3-14.4Q255.3-14.06 255.35-13.48 255.4-12.89 255.52-12.26 255.64-11.62 255.79-11.08 255.94-10.55 256.18-10.3L256.18-10.3Q256.38-10.06 256.84-9.94 257.3-9.81 257.84-9.74 258.38-9.67 258.92-9.64 259.45-9.62 259.75-9.62L259.75-9.62Q260.92-9.62 262.26-9.72 263.6-9.81 264.99-9.94 266.39-10.06 267.7-10.23 269.02-10.4 270.15-10.55ZM294.56-32.67L294.56-32.67Q294.56-31.69 294.14-30.83 293.73-29.98 293.02-29.35 292.31-28.71 291.43-28.34 290.55-27.98 289.67-27.98L289.67-27.98Q288.7-27.98 287.84-28.42 286.99-28.86 286.35-29.54 285.72-30.22 285.38-31.13 285.04-32.03 285.04-32.96L285.04-32.96Q285.04-33.89 285.4-34.69 285.77-35.5 286.38-36.08 286.99-36.67 287.79-37.01 288.6-37.35 289.53-37.35L289.53-37.35Q290.46-37.35 291.36-36.99 292.26-36.62 292.97-35.96 293.68-35.3 294.12-34.45 294.56-33.59 294.56-32.67ZM296.56-24.37L296.56-24.37Q296.32-21.78 296.17-19.24 296.02-16.7 295.88-14.16L295.88-14.16Q295.68-11.18 295.22-8.25 294.75-5.32 294.17-2.39L294.17-2.39 286.7-1.61Q286.7-3.17 286.72-4.69 286.75-6.2 286.75-7.76L286.75-7.76Q286.75-11.77 286.6-15.77 286.45-19.78 286.31-23.78L286.31-23.78Q288.89-23.88 291.41-24.07 293.92-24.27 296.56-24.37Z" opacity="1" transform="matrix(1,0,0,1,0,0)" fill="#ffffff" class="wordmark-text-0" data-fill-palette-color="primary" id="text-0"></path></svg></g></svg></g></svg></g></svg></g></svg></g></svg></g></svg></g></svg></g><defs></defs></svg><rect width="395.52" height="247.2" fill="none" stroke="none" visibility="hidden"></rect></g></svg></g></svg>